<?xml version="1.0" encoding="utf-8"?>
<!-- Generator: Adobe Illustrator 18.1.1, SVG Export Plug-In . SVG Version: 6.00 Build 0)  -->
<svg version="1.1" id="Layer_1" xmlns="http://www.w3.org/2000/svg" xmlns:xlink="http://www.w3.org/1999/xlink" x="0px" y="0px"
	 viewBox="47 -9.5 52 41" enable-background="new 47 -9.5 52 41" xml:space="preserve" >
<g>
	<path fill="#000000" d="M77.5,5.1h0.7L78.9,5L79.4,5c0.2,0,0.3,0,0.3-0.3l-0.1-0.1l-0.2-0.1l-0.1-0.1l0.1-0.1h0.2l0.1,0.1L80,4.5
		c0.3,0.1,0.4,0.3,0.4,0.5v0.1l0.2,0.3l0.2,0.2c0.1,0,0.2,0.2,0.4,0.2l0.4,0.3c0.1,0.1,0.1,0.1,0.1,0.2l-0.1,0.1l-0.5,0l-0.3-0.2
		C80.7,6,80.5,6,80.2,5.9l-0.1-0.1h-0.3l-0.3,0l-0.2,0.1L79.1,6v0.1l0.1,0.1l0.2,0.1l0.3,0.1l0.2,0.2l0,0.2C80,6.8,80,7,80,7.2
		c0.4,0.1,0.7,0.3,0.6,0.4l-0.9,0c-0.4,0-0.7,0-1,0l-0.7,0.2h-0.1V8c-0.4,0.1-0.6,0.1-0.8,0.3l-0.5,0l-0.5,0.1c0,0,0.1,0,0.1,0h0.1
		l0.3,0.1c-0.1,0.1,0,0.2,0.2,0.2l0.4-0.1l0.8,0l0.3,0.1v0.1c0.1,0,0.2,0.1,0.3,0.1c0.5-0.2,0.9-0.2,1-0.1c0.3,0.3,0.7,0.3,1.2,0.3
		L81.2,9h0.2l0.2,0.1L82,9.3c0.2,0,0.3,0.1,0.4,0.1l0.3-0.3l0.2-0.1L83,8.9l0.1-0.1l0.1,0l0.1-0.1l0.3-0.1H84c0.1,0,0.2-0.3,0.4-0.7
		V7.5l0-0.3V6.9l-0.2-0.6L84.1,6l-0.3-0.5l-0.4-0.3c-0.3-0.1-0.6-0.1-0.6-0.1l-0.3,0.3c-0.1,0.1-0.3,0.2-0.4,0.1
		c-0.1,0-0.3-0.1-0.4-0.2l-0.4-0.3c-0.1,0-0.1-0.2-0.2-0.5c-0.1-0.2,0-0.3,0.2-0.4L81.8,4L82.2,4l0.3,0.1c0.1,0,0.1,0,0.1-0.1l0-0.1
		l0.2-0.4l0.5-0.4L83.6,3l0.1-0.1V2.6l-0.1-0.1V2.3l-0.1-0.1c0-0.4-0.1-0.6-0.2-0.7l-0.2-0.2L83,1.1V0.8l0.1-0.4V0.3l0-0.2V0
		c0-0.2-0.2-0.4-0.4-0.5l-0.1-0.1l0,0l-0.1-0.3l-0.2-0.1l-0.5-0.2c-0.1,0-0.2-0.2-0.4-0.4L81-1.9h-0.3L80.4-2
		c-0.1-0.2-0.1-0.4,0-0.7c0.1-0.2,0.2-0.4,0.4-0.5l-0.4-0.1l-0.3-0.1l-0.4-0.2l-0.5-0.1l-1,0.1c-0.4,0-0.6-0.1-0.7-0.3v-0.1h-0.7
		c-0.2,0-0.3,0-0.4-0.2l-0.3,0h-0.2c-0.2-0.1-0.3-0.1-0.4-0.2l-0.3-0.2c-0.1-0.1-0.2-0.2-0.2-0.3c-0.1-0.1,0-0.2,0.1-0.3l0.4-0.1
		l1-0.3c0.6-0.2,1.1-0.5,1.5-0.7c0.4-0.2,0.9-0.4,1.4-0.5l0.6-0.1l0.6,0.1h0.6l0.6,0.1l0.4,0c0.1,0.1,0.2,0.1,0.2,0.1h0.8l0.4,0.2
		l0.3,0.3l1,1.3l0.2,0.1c0.1,0,0.1,0.2,0.1,0.4v0.1l0,0l0.1,0.2v0.1l-0.2,0.3l-0.2,0.3l-0.2,0.3l-0.2,0.3h0.2l0.4-0.2l0.2-0.1
		c0.3,0.2,0.5,0.3,0.7,0.1c0.3-0.2,0.3-0.3,0.1-0.4c-0.2-0.1-0.3-0.3-0.3-0.6l0.1-0.4l0.2,0h0.2c0.3,0.1,0.4,0.2,0.6,0.1h0.3
		l0.2,0.1L87.8-4c0.2,0,0.4,0.1,0.5,0.2l0.1,0.3l0.2,0.1h0.3l0.4,0.1l0.2,0.1L89.7-3c0.1,0,0.1,0,0,0.2c0.1,0,0,0.1,0,0.1l-0.2,0.1
		l0.1,0.1c0.1,0,0.2,0.1,0.5,0.2l0.4,0.1l0.4,0.2C90.9-1.9,91-1.8,91-1.6c0.1,0.2,0.1,0.3,0.2,0.4l0.2,0.1L91.6-1l0.1,0.1L92-0.4
		l0.3,0.6l0.1,0.7l-0.1,0.8c0,0.1-0.1,0.1-0.1,0.2L92,2.1l-0.2,0.2c-0.1,0.1-0.1,0.1,0,0.1c0.1,0.1,0.1,0.1,0.1,0.2l-0.2,0.3L91.5,3
		c-0.1,0.1-0.1,0.3,0,0.4h0.3L92,3.2V3l-0.1-0.2c0-0.4,0.2-0.6,0.8-0.6L93,2.4l0.3,0.1l0.5,0.3C94,3,94.1,3.2,94.1,3.4l0.2,0.3
		l0.1,0.3c0,0.4-0.1,0.6-0.1,0.4c0-0.1-0.2-0.2-0.6-0.3l-0.2,0.1l0,0l-0.1,0.1v0.2l0.1,0.1c0,0,0,0-0.1,0h-0.1l-0.1,0.1
		c0,0.2,0,0.3,0.2,0.3L93.6,5h0.1L94,5.1l0.2,0.1c0.1,0,0.3,0.1,0.3,0.2l0.2,0.3c0,0.1,0,0.2-0.1,0.3h-0.2L94.2,6L94,6L94,6.2
		l0.2,0.4l0.2,0.2c0.1,0.2,0,0.3,0,0.4c-0.1,0.1-0.1,0.2-0.2,0.1c-0.2-0.1-0.4-0.1-0.7,0l-0.2,0.2l-0.1,0.2c-0.1,0-0.1,0-0.3,0
		c-0.1,0-0.2,0.1-0.2,0.1L92.5,8L92.4,8c-0.1,0-0.1,0-0.2,0l-0.1,0.1v0.2c0.1,0,0.1,0,0.2,0l0.1-0.1l0-0.1l0.1-0.1c0,0,0.2,0,0.4,0
		c0.1,0.1,0.2,0,0.3,0l0.1,0l0,0.3c0.1,0.1,0.1,0.2,0.1,0.4c-0.1,0.2,0,0.3,0.1,0.3c0,0,0,0,0,0V8.9l0.1-0.1l0-0.1l0.1-0.1
		c0.1,0,0.1-0.2,0-0.4L93.8,8c0-0.4,0.1-0.6,0.4-0.5c0.1,0.1,0.2,0.2,0.3,0.5l0.1,0.4l0.1,0.2l0.1,0.1l0,0.1v0.4l-0.1,0.2l-0.3,0.3
		l-0.1,0.1l-0.1,0.1L94,9.9h0l-0.3-0.3c-0.1-0.1-0.1-0.2-0.2-0.2c-0.1,0-0.1,0.1-0.1,0.2l-0.1,0.3L93,10.4c0,0.1-0.1,0.1-0.2,0.1
		l-0.3,0.1c0,0.1-0.1,0.2-0.1,0.4L92.3,11l-0.2,0l-0.2,0.1l-0.3-0.1l-0.2-0.1H91l-0.3,0.1l-0.3,0.2c-0.1,0.2-0.2,0.3-0.3,0.3
		l-0.3-0.1l-0.2-0.1l-0.5-0.2h-0.6l-0.6,0.1c-0.2,0-0.3,0-0.4,0.1l-0.1,0.3l-0.1,0.1h-0.3l-0.1-0.1l0,0l-0.5-0.2l-0.6-0.1h-0.6
		c-0.2,0-0.4,0-0.6-0.1c-0.3-0.1-0.4-0.1-0.5-0.1l-0.1,0.2c0,0.1-0.1,0.2-0.1,0.2c-0.4,0-0.9-0.2-1.5-0.5c-0.3-0.2-0.6-0.3-0.8-0.2
		c0,0.2,0.1,0.4,0,0.6c0,0.2-0.1,0.3-0.2,0.4l-0.6,0.4l-0.6,0.3l-0.3,0.3c-0.2,0.2-0.2,0.4-0.3,0.6c-0.1,0.7-0.1,1,0,1.2l0.1,0.7V16
		l0.4-0.1l0.7-0.2l1.4-0.2l0.8-0.1l1.6-0.1l3.8,0.1l1.4,0.3h0.4l0.3,0l0.7,0.1L93,16l0.4,0.1l0.9,0l2.2,0.3l0.7,0.2
		c0.3,0.1,0.4,0.1,0.6,0.3l0.1,0.1v0.3c0,0.2,0.2,0.4,0.5,0.7l0.5,0.6v0.3c0,0-0.1,0.1-0.2,0c-0.1,0-0.4-0.1-0.7-0.2l-0.7-0.1
		c-0.4-0.1-0.7-0.2-1-0.2h-0.2l-0.3-0.1h-0.3l-0.3,0l-1-0.1L93,17.8l-3.9-0.4l-1.6-0.1l-1.4-0.1c-0.1,0.1-0.4,0.1-0.7,0h-0.7
		l-0.9,0.1h-1l-0.7,0l-0.6,0.1h-0.1v0l0.1,0.1l0.1,0.1c0.2,0.2,0.4,0.3,0.6,0.3l0.4,0.1l0.9,0.4c0.1,0.1,0.1,0.1,0.1,0.3v0.3
		l-0.2,0.1l-0.1,0.1l-0.2,0.1l-0.2,0h-0.3c-0.2,0.1-0.4,0.1-0.6,0.1l-0.6-0.1l-0.4-0.1l-0.3-0.1l-0.4,0l-0.3-0.1L78.9,19
		c-0.5-0.1-1-0.2-1.8-0.2h-0.5l-0.4-0.1h-0.5h-0.4c-0.8-0.1-1.3-0.1-1.6,0l-1-0.1h-0.4l-0.5,0l-1.2-0.1l-0.6-0.1h-0.5l-0.5,0h-0.4
		l-0.5,0h-1.9l-1.5,0.1h-3.1l-2.2,0.1l-1.9,0.2L57.3,19h-0.4L56.5,19h-0.4l-0.4,0L55,19.3l-1,0.1l-2.7,0.1c-0.1,0-0.2-0.1-0.3-0.1
		c0-0.1,0-0.2,0-0.3c0.2-0.2,0.4-0.3,0.7-0.3c0.4,0,0.7-0.1,1.1-0.2c0.3-0.1,0.8-0.2,1.3-0.3l1.3-0.3l0.3-0.1l2-0.4h0.3l0.4-0.1h0.3
		l0.3,0l1.7-0.1l1.3-0.1l1.2,0l0.1-0.1v-0.1l0.1-0.1l0-0.1l0.3-0.4l0.1-0.2c0.2-0.8,0.3-1.5,0.3-2.1v-0.3l-0.2-1.3l-0.1-0.7
		c0,0,0-0.1-0.1-0.1l-0.1-0.1l-0.4-0.1c-0.2-0.1-0.4-0.1-0.6-0.3l-0.5-0.4l-0.8-0.9c-0.2-0.2-0.4-0.3-0.7-0.3l-0.6,0l-0.3,0.3
		l-0.2,0.2l-0.4,0.1c-0.2,0-0.3,0-0.4,0l-0.3-0.1c-0.2,0-0.3,0-0.3-0.1c0-0.2-0.1-0.3-0.2-0.3l-0.3,0.3l-0.1,0.2h-0.3L57,9.7l-0.1,0
		l-0.1,0.1c-0.1,0.2-0.2,0.2-0.3,0.3c-0.6,0.2-1,0.2-1.4,0.1l-0.3,0l-0.4,0l-0.3-0.1L54,10.1c-0.1,0.1-0.3,0.1-0.6,0L53.3,10h-0.2
		c0,0-0.2,0.1-0.5,0.2c-0.2,0.1-0.4,0.1-0.6,0.1c-0.1,0-0.3-0.1-0.3-0.2l-0.2-0.2l-0.3-0.3l-0.1-0.2c-0.1-0.1-0.1-0.1-0.2-0.1v0
		h-0.1v0.1h-0.1c0.1,0,0.1,0,0,0h0l-0.1,0.1h-0.1l-0.3,0.1l-0.4-0.1h-0.4c-0.1-0.1-0.3-0.1-0.4-0.2V9.4H49l0,0h-0.1l-0.3-0.1
		c-0.1,0.1-0.2,0-0.4-0.1c0-0.1,0-0.2,0-0.4c0-0.2,0-0.3-0.1-0.4L48,8.2l-0.2-0.1c0,0,0,0,0-0.1l-0.1,0V7.8
		c-0.2-0.1-0.4-0.4-0.5-0.8l0-0.7L47.7,6c0-0.1,0.1-0.1,0.1-0.2l0.1-0.2c0.1-0.3,0.4-0.4,0.7-0.5l0.2,0l0.6,0l0.3,0.2
		c0.1,0.1,0.1,0.1,0.1,0l0.1,0c0,0,0.1-0.1,0.1-0.1L50.1,5c0-0.1,0.1-0.2,0.2-0.3l0.1-0.1V4.3c-0.1-0.2-0.1-0.3,0-0.4l0.2-0.2
		l0.2-0.2c0.1-0.1,0.2-0.1,0.4-0.1c0.2,0,0.3,0,0.3-0.1c-0.1,0-0.1-0.1-0.3-0.1h-0.4l-0.5,0.2c-0.3,0.1-0.4,0-0.4-0.1
		c-0.1-0.2-0.1-0.3-0.3-0.3c-0.3,0-0.5-0.1-0.6-0.4l0.1-0.4l0.1-0.3l0.2-0.6l0.3-0.3l0.4,0l0.2,0c0.1,0,0.1,0,0.2,0
		c0.1-0.1,0.1-0.2,0.1-0.3c-0.1-0.2-0.1-0.3,0-0.4c0-0.2,0.2-0.2,0.5-0.3L51.3,0l0.1-0.2l0.4-0.3l0.2-0.1c0-0.1,0.1-0.1,0.1-0.2
		c0-0.1,0.1-0.2,0.3-0.3l0.4-0.1c0.1,0,0.2-0.1,0.3-0.2c0.1-0.5,0.3-0.8,0.4-0.9v0l0.3-0.1l0.2-0.1c0,0,0-0.1,0-0.2L53.7-3
		c0.1,0,0.1,0,0.1-0.1v-0.1l0,0v-0.1l0.3-0.3l0.3-0.2c0.2-0.1,0.3-0.3,0.4-0.5c0.2-0.3,0.3-0.5,0.4-0.6c0.4-0.3,0.6-0.4,0.8-0.5
		c0.2-0.1,0.4,0,0.7,0.1c0.1-0.2,0.3-0.4,0.7-0.4h0.3l0.2,0.1h0.4l0.4-0.1l-0.2-0.4h-0.1l-0.2-0.2l-0.1-0.2c0.1-0.1,0.1-0.2,0.3-0.1
		c0.1,0,0.2,0.1,0.3,0.2c0,0.1,0,0.1,0.1,0.1h0.2l0.3,0.1h0.2h0.2c0-0.1,0-0.2,0-0.3l-0.1-0.1c-0.1-0.1-0.2-0.2-0.2-0.4
		c0.1,0.1,0.2,0,0.3-0.1l0.1-0.1l0.5-0.2c0,0,0-0.1,0-0.1l0.1-0.3l0.3-0.1L61-7.9c0.3-0.3,0.9-0.5,1.8-0.7l0.4-0.1h0.4L64-8.6
		l0.4-0.1L65-8.6l0.5,0.2c0,0,0.1,0,0.2,0.2c0,0.1,0.1,0.1,0.2,0.1l0.4-0.1h0.4l0-0.1l0.1-0.2c0.2-0.1,0.2-0.2,0.2-0.3
		c-0.1-0.2-0.1-0.2-0.3-0.2c-0.1,0-0.2-0.1-0.1-0.3c0.1-0.1,0.2-0.2,0.4-0.2l0.6,0c0.1,0,0.2,0,0.3,0.1l0.2,0.2l0.3-0.1l0.2-0.1h0.3
		C69-9.5,69-9.5,69-9.5l0.3,0c0.1,0,0.2,0,0.2,0c0.1,0.1,0.1,0.2,0.1,0.3c-0.1,0-0.1,0.1-0.2,0c0,0.1,0,0.1-0.1,0.1h0l-0.1,0.1v0
		l0.3,0.2l0.2,0.2l0.7-0.2h0.4c0.1,0,0.2,0.1,0.3,0l0.4,0.1l0.3,0.1c0.4,0,0.7,0.1,0.9,0.2c0.1,0.1,0.3,0.3,0.4,0.6l0.1,0.3
		c0,0.2,0,0.3-0.1,0.2c-0.2,0-0.3,0.1-0.2,0.2c0,0.2,0,0.3-0.1,0.3c0,0-0.2-0.1-0.3-0.1h-0.1l0,0.1l-0.1,0.1h0
		c-0.4-0.1-0.6-0.2-0.6-0.2c-0.1-0.1-0.2-0.1-0.4,0c-0.1,0.1-0.2,0.1-0.4,0.1l-0.8,0.3L70-6.3h-0.1c-0.2,0-0.2,0-0.2,0
		c-0.2,0-0.4,0-0.6-0.1L69-6.3l-0.1,0.1l-0.4,0.1l-0.1,0.2l0.1,0.3c0.1,0.1,0.1,0.2,0.1,0.4c0,0.2,0,0.3,0.1,0.3l0.1,0.1l0.1,0.1H69
		l0.4-0.1c0.3-0.1,0.5-0.3,0.7-0.4l0.7-0.6c0.3-0.2,0.6-0.3,1.1-0.4c0.6-0.1,1.1-0.1,1.7,0l0.1,0.2l0,0.2c0.1,0.1,0.1,0.3,0,0.3
		l0,0.2L73.7-5c-0.1,0.2-0.1,0.3-0.1,0.3l-0.3,0.4l-0.1,0.2l-0.1,0.1L73-3.9v0.1l-0.5,0.2l-0.4,0l-0.4-0.1l-0.2-0.1l-0.1,0l-0.6,0
		l-0.6,0l-0.4,0.2l-0.3,0.2c-0.2,0.1-0.4,0.2-0.7,0.1l-0.3,0c-0.2,0.1-0.3,0.2-0.3,0.2l-0.6,0.3l0.4,0.4L68.4-2l0.2,0.1
		c0.1,0,0.1,0,0.2-0.1l0.1-0.1l0.3-0.1l0.1-0.1l0.1-0.1l0.2-0.3c0.2-0.1,0.3-0.1,0.5,0l0.3,0.3c0.1,0,0.2,0,0.3,0l0-0.1l0.1,0
		l0.4-0.1h0.4l0.5-0.1l0.4,0.1l0.2,0.1c0.1,0.1,0.1,0.1,0.1,0v-0.4c0-0.1,0.1-0.2,0.1-0.2c0.3-0.2,0.4-0.3,0.5-0.3
		c0.1,0,0.2-0.1,0.3-0.2L74-3.9c0.3-0.1,0.5,0,0.7,0.1c0.1,0.1,0.1,0.1,0.1,0.2l0.1,0.1l0,0.1v0.1l0.1,0v0.1l0.3,0.1h0.3
		C75.9-3,76-2.8,76-2.4v0.1c0,0.2-0.1,0.3-0.2,0.4l-0.9,0.4c0,0,0,0.1,0.1,0.1l0.1,0.1l0.3,0.3c0,0.1,0.2,0.1,0.4,0.1h0.4l0.2-0.1
		L76.6-1c0.2-0.1,0.3-0.2,0.4-0.3c0,0,0.1-0.1,0.3-0.1l0.7,0.1l0.3,0.1L78.3-1l0.2,0.2l0.1,0.1c0,0.2,0,0.3,0,0.5
		c-0.1,0.2-0.1,0.4-0.1,0.5c0,0.1-0.1,0.3-0.1,0.3l-0.3,0.3c-0.1,0.1-0.1,0.1-0.3,0.1l-0.2-0.1L77.4,1l-0.2,0.2
		c-0.2,0.1-0.4,0.2-0.7,0.3h-0.4H76l-0.3-0.1l-0.5-0.3l-0.5-0.3c-0.1-0.1-0.2-0.1-0.2,0c-0.2,0.3-0.3,0.6-0.4,0.7L74,1.5
		c-0.1,0-0.3,0-0.4-0.1l-0.8-0.5l-0.2-0.1h-0.1l-0.1,0l-0.5-0.1h-0.9l-0.7,0.1l-0.5,0.1L69.4,1l-0.2,0.1l-0.4,0.4l-0.9,0.8
		c-0.1,0,0,0,0.1,0.1c0.1,0.1,0.2,0.1,0.2,0.2l0.5-0.3l0.9-0.5l0.6-0.1l0.1,0.1h0.4l0.2,0.1l0.4,0L72.5,2c0.4,0,0.7,0.1,0.9,0.2
		c0,0.1,0,0.3,0.2,0.4c0.1,0,0.1,0.2,0,0.3l-0.3,0.3l-0.2,0.3l0.1,0.2l0.2-0.1l0.1-0.1l0.4-0.1h0.2l0.1,0.1c0.1,0,0.1,0.1,0.2,0.1
		l0.1,0.1c0.1,0.2,0.3,0.3,0.4,0.4h0.6h0.3c0.1,0,0.2,0,0.3-0.1c0.2-0.7,0.4-1,0.5-1.2c0.2-0.2,0.4-0.3,0.6-0.3
		c0.2,0,0.3,0.1,0.4,0.4l0.2,0.4l0.1,0.4c0,0.3,0,0.4-0.2,0.4L77.2,4L77,4.2l-0.1,0.3l-0.1,0.2l0,0.1c0,0.1,0.1,0.1,0.2,0.2l0.4,0.1
		L77.5,5.1L77.5,5.1L77.5,5.1z M79.9,1.4l0.1,0.1l0.1,0l0.3,0.1c0.1,0,0.2-0.1,0.3-0.2c0.1-0.1,0.1-0.1,0-0.3
		c-0.1-0.2,0-0.3,0.1-0.4c0.1-0.2,0.3-0.2,0.5-0.3l0.3,0.1c0.2,0,0.3,0,0.4,0C82,0.5,82,0.3,82,0c-0.1-0.3-0.3-0.4-0.6-0.4h-0.1
		h-0.2H81l-0.1,0.1l-0.5,0.1c-0.3,0.1-0.4,0.2-0.5,0.4l-0.2,0.5v0.5C79.7,1.2,79.8,1.3,79.9,1.4L79.9,1.4z M50.6,9.6h-0.7H50.6
		L50.6,9.6z M79.8,11.1l0.4-0.1c0.1,0,0.2,0,0.2-0.1l0.1-0.4c-0.1-0.2-0.3-0.2-0.4-0.2h-0.1h-0.1c-0.2,0.1-0.4,0.2-0.4,0.4
		c-0.1,0.2-0.1,0.4,0.1,0.5h0.1L79.8,11.1L79.8,11.1L79.8,11.1z M71.3,10.3c-0.3,0-0.4,0.2-0.4,0.4c0,0.1,0.1,0.1,0.2,0.1l0.3-0.1
		l0-0.1l0-0.2l0-0.1l0-0.1L71.3,10.3L71.3,10.3z M74.1,10.1c0,0.1,0.1,0.2,0.2,0.2l0.4,0.2h0.5h0.2l0.1-0.1l0-0.2
		c0-0.1-0.1-0.2-0.1-0.2l-0.6-0.1c-0.2,0.1-0.4,0.1-0.6,0C74.1,9.9,74.1,10,74.1,10.1L74.1,10.1z M71.9,9.9l0.2,0.2l0.1,0.1l0.1,0.1
		c0.1,0.1,0.3,0.1,0.5,0c0.2,0,0.2-0.1,0.1-0.3c-0.1-0.1-0.3-0.2-0.4-0.2l-0.7-0.1h0.1C71.9,9.8,71.9,9.9,71.9,9.9L71.9,9.9z
		 M62.4,8.7l-0.2,0.2c0,0.2,0,0.4,0.2,0.6l0.4,0.4l0.4,0.3c0.1,0.1,0.3,0.2,0.4,0.2c0.2,0.1,0.2-0.2,0.1-0.6c0-0.1-0.1-0.3-0.4-0.6
		L63.3,9l-0.5-0.2L62.4,8.7L62.4,8.7z M60.6,7.8l0,0.2v0.2c0.3,0,0.6,0.1,0.8,0c0.2,0,0.3-0.2,0.2-0.4c0.2-0.1,0.2-0.1,0.1-0.3
		c-0.1-0.1-0.3-0.1-0.4-0.1C61,7.5,60.8,7.7,60.6,7.8L60.6,7.8z M62.9,7.6c0,0.1,0,0.1-0.1,0.1v0.1c0,0.2,0,0.2,0,0.3
		C63,8.3,63.4,8.4,64,8.7c0.1,0,0.1-0.1,0.1-0.2V8.1c0-0.3,0-0.5-0.1-0.6c-0.1,0-0.2-0.1-0.4-0.1c-0.1,0-0.1,0.1-0.3,0.1
		C63.1,7.6,63,7.7,62.9,7.6L62.9,7.6z M75.7,6.8c0.1,0,0.1-0.1,0-0.1l-0.1-0.3l-0.2-0.2l-0.3-0.1l-0.3,0.3c-0.1,0.2-0.3,0.2-0.3,0.3
		c0,0.2,0.2,0.3,0.6,0.4l0.1,0.1c0,0.1,0.1,0.1,0.1,0.1l0.3,0.1l0.3-0.1c0,0,0.1,0,0.1-0.2l-0.2-0.2L75.7,6.8L75.7,6.8z M78.2,6.2
		l-0.3-0.1c-0.4,0-0.5,0.1-0.4,0.3l0.2,0.2L78,6.7L78.3,7l0.2,0.1l0.1,0h0.1l-0.2-0.3l-0.1-0.3C78.3,6.3,78.2,6.2,78.2,6.2L78.2,6.2
		z M58.2,5.2l-0.1,0.2v0.2c0.3,0.3,0.6,0.5,0.7,0.6l0.4,0l0.4-0.1L60,6h0.3c0.1,0,0.2,0,0.1,0l-0.3-0.3l-0.2-0.1l-0.2-0.2
		c-0.3-0.1-0.7-0.2-1.2-0.2h-0.2L58.2,5.2L58.2,5.2z M59.7,0.8c-0.2,0-0.3,0-0.4,0.1c0,0.2,0.1,0.3,0.2,0.4c0.1,0.1,0.2,0.1,0.4,0.1
		l0.2,0.1c0.1,0,0.1,0.1,0.2,0.1h0.2h0.2h0.2c0.1,0.1,0.1,0.1,0.1,0V1.5l-0.1-0.2l-0.3-0.3l0-0.1l-0.2-0.1L59.7,0.8L59.7,0.8z
		 M58.7-0.6l-0.1-0.1l-0.4,0.2c-0.2,0.1-0.4,0.2-0.6,0.2c-0.1,0-0.1,0.1-0.1,0.3l0,0.5c0.1,0.3,0.1,0.5,0.2,0.5
		c0.2,0,0.4-0.1,0.7-0.6L58.5,0l0.1-0.1l0.1-0.1h0.1l0.1,0v-0.1l-0.3-0.2L58.7-0.6L58.7-0.6z M60.4-1.3c-0.1,0.2-0.2,0.3-0.3,0.3
		l-0.2,0h-0.2c-0.1,0.1-0.1,0.1-0.1,0.2c0.1,0.2,0.3,0.3,0.4,0.3l1.3,0c0.2,0,0.4-0.1,0.6-0.2l0.6-0.2c0.5-0.2,1-0.2,1.5-0.1
		l0.4,0.2L65-0.3c0.1,0.1,0.2,0.2,0.4,0.2h0.4l-0.2-0.3l-0.1-0.4c-0.1-0.4-0.1-0.7-0.1-0.9l-0.1,0l-0.1-0.1l-0.3-0.1l-0.2-0.1h-0.3
		L62.4-2c-0.2,0-0.3,0-0.4-0.1l-0.4-0.1l-0.3,0.1L61-1.8L60.4-1.3L60.4-1.3z M58.8-2.6c-0.1-0.1-0.2-0.1-0.4-0.1l-0.3,0.1L58-2.3
		c0,0.1,0.1,0.1,0.1,0.1c0.1-0.1,0.1,0,0.1,0c0,0.2,0,0.2,0.2,0.1c0.1-0.1,0.2-0.1,0.2-0.3C58.8-2.5,58.8-2.6,58.8-2.6L58.8-2.6z
		 M83.7-3.5l0.1,0.1L84-3.5c0.1-0.1,0-0.2-0.1-0.3l0-0.2l-0.1-0.2l-0.3-0.2l-0.3,0.3c0,0.1,0,0.3,0.1,0.3h0.2l0.3,0L83.7-3.5
		L83.7-3.5z M62.6-4.7l0,0.1c0.1,0.1,0.3,0.1,0.4,0.1c0.2,0,0.3-0.1,0.3-0.2L63.4-5c0.1-0.2,0-0.2-0.2-0.2c-0.2,0-0.2,0-0.3,0.2
		C62.8-4.8,62.7-4.7,62.6-4.7L62.6-4.7z M59.1-5.4v0.1l0.1,0.1L59.5-5c0.1,0,0.1,0.1,0.2,0c0.3,0,0.4-0.2,0.4-0.3L60-5.4l-0.3-0.1
		l-0.3,0.1C59.4-5.4,59.3-5.3,59.1-5.4L59.1-5.4z M66.9-6.1L66.9-6.1c-0.2-0.1-0.3,0-0.4,0.2c-0.1,0.2-0.3,0.2-0.4,0.2l-0.3,0.1
		c0,0-0.2,0.1-0.3,0.1h-0.3c-0.2,0-0.3,0.1-0.2,0.3c0,0,0.1,0,0.2,0l0.1,0.1h0.2l0.3,0.2C66-4.8,66.2-4.8,66.3-5l0.4-0.2
		c0.2-0.1,0.4-0.3,0.4-0.4l0-0.1c0.1,0,0.1-0.1,0.1-0.2L67.2-6C67.1-6.1,67.1-6.1,66.9-6.1L66.9-6.1L66.9-6.1z M65.2-7
		c0,0-0.1-0.1-0.4-0.2l-0.1,0.1c0.1,0.1,0.1,0.1,0.1,0.1l-0.1,0.2c0,0-0.1,0.1-0.3,0.1l-0.1,0.1l0.2,0.1l0.1,0.1
		c0,0.1,0.1,0.1,0.1,0l0.1-0.1H65l0.1-0.1l0.1-0.1C65.2-6.9,65.2-7,65.2-7L65.2-7z M63.1-7.3l-0.3,0.2c-0.1,0.1-0.2,0.2-0.1,0.4v0.1
		h0.1l0.1,0.1c0,0.1,0,0.1-0.1,0.1l-0.2,0c0,0.1,0,0.1,0.1,0.1l0,0l0.1,0.1h0.4c0.2,0,0.2-0.1,0.2-0.1c0-0.1,0-0.1-0.1-0.2
		c-0.1-0.1-0.1-0.1,0-0.2l0.3-0.1c0.2,0,0.3-0.1,0.3-0.2c0.1,0,0-0.2-0.1-0.2l-0.4-0.1L63.1-7.3L63.1-7.3z M87.1,10l0.1,0.4h0.1
		l0.1-0.1l0.3-0.1c0.1-0.1,0.2-0.1,0.2-0.1c0-0.1-0.1-0.2-0.2-0.3l-0.4-0.1C87.1,9.8,87,9.8,87.1,10L87.1,10z M84.9,9.6L85,9.8
		c0.1,0.1,0.1,0.1,0.2,0.1c0.2-0.1,0.3-0.3,0.2-0.4l0-0.1l-0.2-0.1C85,9.3,84.8,9.5,84.9,9.6L84.9,9.6z M89.6,9.3
		c0.1,0.2,0.1,0.3,0.3,0.3c0.2,0.1,0.3,0,0.4,0c0.2-0.1,0.2-0.2,0.1-0.4L90.1,9c-0.1,0-0.2,0-0.3,0.1L89.6,9.3L89.6,9.3z M87.1,9.1
		c0,0.2-0.1,0.3,0,0.4l0.2-0.3l0.4-0.3c0.1-0.1,0-0.1,0-0.2l-0.2-0.1c-0.1,0-0.1,0-0.2,0.2L87.1,9.1L87.1,9.1z M90.3,7.1l0.1,0.2
		c0,0.1,0,0.2,0.1,0.1l0.3-0.1c0,0,0.1-0.1,0.1-0.2c0-0.2-0.1-0.3-0.3-0.2l-0.1,0L90.3,7.1L90.3,7.1z M53.5,6.5
		c-0.2,0-0.3,0-0.3,0.1l-0.1,0.2L53.2,7l0.3,0.1L53.7,7l0.3,0.1c0.1,0,0.1,0,0.1,0L54.1,7l0.1-0.1c0.1-0.1,0-0.1,0-0.3l-0.3-0.1
		L53.5,6.5L53.5,6.5z M87,6.1c0,0.1,0.1,0.1,0.4,0.1c0-0.2-0.1-0.2-0.3-0.3L87,6L87,6.1L87,6.1z M90.7,5.5l0,0.1
		c0.1,0,0.1,0.1,0.1,0l0.3-0.1c0.1-0.1,0.1-0.1-0.1-0.2L90.7,5.5L90.7,5.5z M92.7,5.5l0.1,0.2l0.1,0.1l0.1,0.1L93.1,6
		c0.1,0,0.1,0,0.1-0.2V5.6V5.5c0-0.1,0-0.1,0-0.1c-0.2,0-0.3,0-0.4-0.1L92.7,5.5L92.7,5.5z M51.6,4.8l-0.2-0.1
		c-0.1,0-0.1,0.1-0.1,0.1L51.4,5c0,0,0.2,0,0.4-0.1v0l-0.1-0.1H51.6L51.6,4.8z M53.4,4.3l-0.3-0.1c0.2,0.4,0.3,0.7,0.4,0.8h0.1h0.1
		C53.9,5,54,5,54,4.9V4.8V4.6l-0.1-0.2l-0.1-0.1L53.4,4.3L53.4,4.3z M92.2,3.6L92,3.9l-0.3,0.4l-0.2,0.1c-0.1,0-0.1,0.1-0.1,0.1
		l0.3,0.2l0.1,0.2l0.2,0c0.1,0,0.2,0,0.2,0c0.3-0.3,0.4-0.5,0.4-0.7l0-0.2l0-0.1V3.7h0l-0.1-0.2H92.2L92.2,3.6z M55.5,3.3h-0.1
		l-0.1,0.1v0.1v0.2v0.1c0,0,0,0.1,0.1,0C55.8,3.8,56,3.6,56,3.6l0.2-0.1c0,0,0.1-0.1,0.2-0.2l-0.1,0C56.3,3.1,56.2,3,56.2,3l0,0
		h-0.1l-0.4,0.1L55.5,3.3L55.5,3.3z M52.9,2.9h-0.3l-0.2,0.2l0.1,0.1l0,0.1l0.1,0.2l0.1,0.1L53,3.3c0.1-0.1,0.1-0.2,0.1-0.3V2.9
		L52.9,2.9L52.9,2.9z M89,2.5c-0.1,0.1-0.1,0.1-0.3,0.1v0.1L88.8,3l-0.1,0.1l0.1,0.2c0.1,0,0.2-0.1,0.3-0.1L89.2,3
		c0.1-0.1,0.1-0.2,0-0.3V2.5l-0.1-0.1L89,2.5L89,2.5z M90.3,1.2c-0.1,0.1,0,0.2,0.2,0.4c0,0,0,0.1-0.1,0.1l0,0.1
		c0,0.1-0.1,0.1-0.2,0.3C90,2.2,90,2.4,90.1,2.5c0.1,0.2,0.3,0.3,0.4,0.3c-0.1-0.2,0-0.3,0-0.4l0.3-0.3c0,0,0-0.1-0.1-0.3
		c0-0.1,0.1-0.2,0.2-0.1l0.4,0.3h0.1V2l-0.1-0.1l-0.1-0.1V1.7h-0.1l0-0.1h-0.1c0,0-0.1-0.1-0.3-0.2c0-0.1-0.2-0.2-0.3-0.2
		C90.5,1.2,90.4,1.2,90.3,1.2L90.3,1.2z M53.3,1.1c0.1,0,0.1,0,0.1,0.1l-0.1,0.3l0.1,0.1l0.2,0.1l0-0.4l-0.1-0.2V1.1
		c0.1-0.1,0-0.1,0-0.1h-0.1l-0.1,0C53.1,1.1,53.2,1.1,53.3,1.1L53.3,1.1z M54.1,0.2l0.2,0.1h0.2h0.2c0.1,0,0.1-0.1,0.1-0.1
		c-0.1,0-0.1,0-0.1-0.1l-0.1-0.1l-0.3,0.1C54.2,0.1,54.1,0.2,54.1,0.2L54.1,0.2z M89.6-0.2c-0.1,0,0,0.1,0.2,0.3l0.3,0.1l0.3,0.1
		c0.1,0.1,0.3,0.2,0.5,0.1h0.1l0,0c0.1-0.2,0-0.3-0.4-0.3h-0.2l-0.1,0l-0.1-0.2L90-0.2L89.6-0.2L89.6-0.2z M52.7-0.2
		c-0.1,0.1-0.2,0.3-0.1,0.5c0.3,0,0.4-0.1,0.4-0.2c0.1-0.1,0-0.2-0.1-0.3l0,0H52.7L52.7-0.2z M53.7-1.4l-0.1,0.1c0,0.1,0,0.1,0,0.2
		l-0.1,0.3l0.1,0.1l0.1,0.1l0.1-0.4l0.1-0.1l0.1-0.2L53.7-1.4L53.7-1.4z M85-1.4c-0.1,0.1-0.2,0.1-0.1,0.2c0.1,0.1,0.2,0.1,0.4,0.1
		c0.2,0,0.3,0,0.4-0.1l0.2-0.1c0.1-0.1,0.1-0.2,0.1-0.3l-0.2,0c-0.1,0-0.2,0-0.3,0.1L85-1.4L85-1.4z M89.1-2.4l-0.5,0
		c0-0.1,0,0-0.1,0.1l-0.1,0.2L88.5-2h0.1l0.1,0.1l0.1,0.3l0.2,0.2c0,0.3,0.2,0.3,0.4,0.2c0,0,0-0.1,0-0.2c0-0.1,0-0.2-0.1-0.3
		l-0.3-0.1C89-1.9,88.9-2,88.9-2.2L89.1-2.4L89.1-2.4L89.1-2.4z M87.1-3.1L86.9-3v0.2c0,0.1,0,0.2,0.1,0.1h0.2l0.3,0.1l0.1-0.3
		c0.1,0,0.1-0.1,0.1-0.2h-0.1h-0.2L87.1-3.1L87.1-3.1z M69.3,4.3L69,4.6l-0.4,0.1c-0.1,0-0.2,0-0.3-0.1c-0.1-0.1-0.2-0.1-0.3-0.1
		c-0.4-0.1-1,0-1.5,0.2c-0.1,0,0,0.1,0.2,0.2l0.4,0.3l0.4,0.3l0.3,0.2c0.1,0.1,0.2,0,0.3-0.2l0.1-0.1h0.1l0.6,0.6
		c0.1,0.1,0.1,0.1,0.1,0.3v0.4c0.1,0.3,0,0.6-0.1,0.6l-0.4,0.6l-0.4,1.2l-0.4,1.3l-0.1,1.3l0,0.6c-0.1,0.2-0.1,0.5,0,0.7
		c0,0.2,0,0.4,0,0.7l-0.1,0.7v0.7l-0.1,0.7c0.1-0.1,0.1-0.1,0.2-0.2l0.2-0.6l0.1-0.3l0.2-0.3l0.1,0.1h0.1v0.6
		c-0.1,0.3-0.1,0.5,0,0.6l0.2-0.4l0.2-0.4l0.2-0.4l0.1-0.1v-0.1c0,0,0-0.1,0-0.1l0.1-0.1l0.1,0.3l0.1,0.9c0,0.2,0.1,0.4,0.2,0.6
		c0,0,0,0.2,0.1,0.5l0.2,0.5l1.3,0l0.7,0l0.3,0l0.3,0l0.5,0.1h1.7l0.3,0.1h0.7l0.3-0.1c0.1,0,0.2-0.1,0.2-0.2c0.1-0.2,0.1-0.6,0.1-1
		l-0.1-1.1c0.1-0.4,0-0.9,0-1.4l-0.1-0.6c-0.1-0.3-0.2-0.5-0.3-0.6c-0.7,0.1-1.3,0-1.8-0.2l-0.4-0.3l-0.1-0.2l-0.3-0.1h-0.2
		c-0.1,0-0.1,0-0.1,0l-0.1,0v0.1c0,0.1-0.1,0.2-0.3,0.2l-0.4,0.1h-0.2l-0.5-0.1l-0.3,0l-0.2,0.1l-0.4,0.1l-0.6,0.1h-0.3
		c-0.3-0.1-0.5-0.2-0.6-0.3c-0.1-0.1-0.1-0.4,0-0.7v-0.1l0-0.3l0.1-0.4l0.7-0.6L70,9c0.2,0,0.3,0,0.3-0.1l0.3-0.4l0.3-0.3h0.3
		l0.3-0.1c0,0,0-0.1,0-0.2V7.4c0.1-0.3,0.3-0.4,0.5-0.5l0.7,0h0.4c0.2,0,0.3,0,0.3,0.1l0.3,0.3c0.1,0,0.2,0.1,0.3,0.2
		c0,0.3,0.3,0.4,0.7,0.4c0.1,0,0.1,0,0.1-0.1l-0.1-0.2L74,6.9l-0.2-0.2c-0.1-0.1-0.1-0.1-0.2-0.2l-0.1-0.1l0-0.1V6.1
		C73.3,6,73.2,6,73.1,6L73,6.1l-0.3,0.1C72.3,6.1,72.1,6,72,5.8c-0.2-0.4-0.4-0.8-0.7-1.2l-0.4-0.3l-0.2-0.1L70.4,4h-0.2
		C70,4,69.7,4.2,69.3,4.3L69.3,4.3z M68.7,8.4l-0.1,0.3c-0.1,0.2,0,0.3,0,0.3c0.1,0.1,0.1,0,0.3,0L69,8.8l0.6-0.4
		C70,8.1,70.3,8,70.3,8c0.2-0.2,0.3-0.4,0.4-0.6L70.8,7c0-0.2,0-0.4-0.2-0.4c-0.1-0.1-0.3-0.1-0.4-0.1H70h-0.2l-0.1,0h-0.1l-0.1,0
		v0.2l0,0.3c-0.1,0.3-0.1,0.4-0.1,0.5L69,7.9L68.7,8.4L68.7,8.4z"/>
	<path fill="#000000" d="M57.9,25l-0.2,1.7l-0.3,3.5l0.6,0h0.6l0.1-0.7l0.2-2.2l0.2-2.5v-0.4c0.6,0,1.1,0,1.4,0.1
		c0.3,0.2,0.4,0.4,0.4,0.8c-0.1,0.2-0.1,0.4-0.3,0.5L60,26.1l-0.4,0.2c-0.2,0-0.3,0.1-0.3,0.2l1.5,2.1l1.3,1.7l0.2,0.3
		c0.2-0.1,0.4-0.2,0.6-0.4l0.4-0.4L62.6,29l-1.1-1.4l-0.5-0.8l0.4-0.2c0.3-0.2,0.4-0.5,0.6-0.8c0.2-0.4,0.2-0.9,0-1.4
		c-0.1-0.3-0.3-0.5-0.4-0.6l-0.7-0.4l-1.6-0.1H58L57.9,25L57.9,25z"/>
	<polygon fill="#000000" points="65.9,23.3 65.9,25 65.8,30.1 65.8,30.3 67,30.2 67,26.8 67.1,25 67,24.1 67,23.3 	"/>
	<path fill="#000000" d="M81.3,23.3h-1l-0.1,4.3v0.9v0.8c0,0.1,0,0.4,0,0.9l1.1,0l0-1.6V23.3L81.3,23.3z"/>
	<path fill="#000000" d="M70.2,27.5c0,0.3,0,0.6,0.1,0.7l0.3,0.6c0.2,0.4,0.6,0.8,1,1.1c0.4,0.2,0.8,0.4,1.3,0.5l0.5,0.1H74l1.7-0.2
		l0.5-0.1c0.2-0.1,0.4-0.1,0.4-0.2v-3H76h-0.6l-0.1,2.2c-0.3,0.1-0.7,0.2-1.2,0.2c-0.6,0-1.1,0-1.5-0.2c-0.3-0.2-0.6-0.4-0.7-0.6
		c-0.2-0.3-0.4-0.6-0.5-0.9l-0.1-0.9l0.2-0.9c0.2-0.3,0.4-0.6,0.7-0.8c0.3-0.2,0.6-0.4,0.9-0.4l1.9,0c0.3,0,0.6,0.1,0.7,0.2l0.2-0.6
		l0.2-0.6l-0.4-0.1l-1.4-0.2c-1,0-1.9,0.2-2.4,0.6c-0.4,0.3-0.7,0.6-1,0.9c-0.2,0.3-0.4,0.6-0.5,0.9C70.2,26.2,70.1,26.9,70.2,27.5
		L70.2,27.5z"/>
	<path fill="#000000" d="M51.8,23.1L50.6,23l-0.8,0.1c-0.4,0.1-0.8,0.2-1,0.4c-0.4,0.3-0.7,0.6-0.9,0.8l-0.6,0.9
		c-0.2,0.6-0.4,1.1-0.3,1.6c0,0.3,0,0.5,0.1,0.6l0.1,0.6l0.3,0.6l0.4,0.5l0.9,0.7c0.4,0.3,0.7,0.4,1,0.5c0.6,0.1,1.2,0.1,1.8,0
		c0.6-0.1,1-0.3,1.4-0.6c0.4-0.4,0.7-0.7,0.9-0.9c0.2-0.4,0.4-0.7,0.6-1c0.2-0.7,0.2-1.3,0.2-1.8c-0.1-0.6-0.3-1-0.4-1.3
		c-0.3-0.4-0.4-0.6-0.6-0.7c-0.2-0.2-0.5-0.4-0.8-0.7l-0.5-0.2L51.8,23.1L51.8,23.1L51.8,23.1z M53.3,26.5c0,0.6-0.1,1.1-0.4,1.5
		c-0.2,0.3-0.4,0.6-0.6,0.7c-0.2,0.2-0.4,0.3-0.8,0.4l-0.9,0.1l-0.6,0l-0.4-0.2l-0.4-0.3l-0.4-0.4l-0.1-0.2l-0.2-0.5l-0.1-0.6
		c0-0.5,0-1,0.1-1.4c0.2-0.5,0.5-0.9,0.9-1.1c0.4-0.3,0.9-0.4,1.4-0.4c0.5,0.1,1,0.3,1.5,0.6c0.3,0.2,0.5,0.4,0.7,0.7
		C53.2,25.8,53.3,26.1,53.3,26.5L53.3,26.5z"/>
	<path fill="#000000" d="M85.7,23c0,0.9-0.2,2-0.3,3.2l-0.2,1.6l-0.1,0.8l-0.1,0.7l-0.2,1h1.2c0.1-0.4,0.1-0.9,0.2-1.6l0.3-2.9
		l0-0.2c0.2,0.2,0.4,0.4,0.6,0.6l0.6,0.5l0.5,0.6l1.6,1.8l2.1,2.1l0.1-0.2v-7.7h-1.3l0.1,3.7c0,0.4,0,0.7-0.1,0.9v0.3
		c-0.3-0.3-1.2-1.2-2.5-2.6l-1.1-1.1l-1.1-1.1L86,23.2L85.7,23L85.7,23z"/>
	<path fill="#000000" d="M97.5,24.5l0.7-0.1l0.6,0.1l0.2-1.1l-0.6-0.1c-1,0-1.9,0.3-2.4,0.9c-0.3,0.4-0.4,0.9-0.4,1.4
		c0.1,0.3,0.3,0.6,0.4,0.9l0.7,0.7c0.3,0.3,0.5,0.6,0.6,0.7c0.1,0.2,0.1,0.4,0.1,0.7c-0.1,0.3-0.2,0.4-0.4,0.6
		c-0.3,0.2-0.5,0.3-0.7,0.3c-0.2,0.1-0.4,0.1-0.7,0l-0.5,0l-0.3,1.1l1.6,0c0.4,0,0.7-0.1,0.9-0.3c0.4-0.3,0.8-0.6,1-1
		c0.1-0.3,0.2-0.6,0.2-0.9c0-0.3-0.1-0.5-0.2-0.7c-0.1-0.2-0.3-0.4-0.6-0.7l-0.6-0.6c-0.2-0.3-0.4-0.5-0.4-0.7l-0.1-0.3l0.1-0.3
		C97.1,24.6,97.3,24.5,97.5,24.5L97.5,24.5z"/>
</g>
</svg>
